# Tiled2Unity generated file. Do not modify by hand.
# Wavefront file for 'huis_mesh_0002.obj'

# Vertices (Count = 92)
v -240 -512 0
v -256 -512 0
v -256 -496 0
v -240 -496 0
v -224 -512 0
v -240 -512 0
v -240 -496 0
v -224 -496 0
v -192 -512 0
v -208 -512 0
v -208 -496 0
v -192 -496 0
v -176 -528 0
v -192 -528 0
v -192 -512 0
v -176 -512 0
v -160 -528 0
v -176 -528 0
v -176 -512 0
v -160 -512 0
v -288 -544 0
v -304 -544 0
v -304 -528 0
v -288 -528 0
v -256 -544 0
v -272 -544 0
v -272 -528 0
v -256 -528 0
v -240 -544 0
v -256 -544 0
v -256 -528 0
v -240 -528 0
v -224 -544 0
v -240 -544 0
v -240 -528 0
v -224 -528 0
v -208 -544 0
v -224 -544 0
v -224 -528 0
v -208 -528 0
v -176 -544 0
v -192 -544 0
v -192 -528 0
v -176 -528 0
v -160 -544 0
v -176 -544 0
v -176 -528 0
v -160 -528 0
v -256 -576 0
v -272 -576 0
v -272 -560 0
v -256 -560 0
v -240 -576 0
v -256 -576 0
v -256 -560 0
v -240 -560 0
v -224 -576 0
v -240 -576 0
v -240 -560 0
v -224 -560 0
v -256 -592 0
v -272 -592 0
v -272 -576 0
v -256 -576 0
v -240 -592 0
v -256 -592 0
v -256 -576 0
v -240 -576 0
v -224 -592 0
v -240 -592 0
v -240 -576 0
v -224 -576 0
v -256 -608 0
v -272 -608 0
v -272 -592 0
v -256 -592 0
v -240 -608 0
v -256 -608 0
v -256 -592 0
v -240 -592 0
v -224 -608 0
v -240 -608 0
v -240 -592 0
v -224 -592 0
v -160 -608 0
v -176 -608 0
v -176 -592 0
v -160 -592 0
v -272 -640 0
v -288 -640 0
v -288 -624 0
v -272 -624 0

# Texture cooridinates (Count = 88)
vt 0.4214876 0.743346
vt 0.4380165 0.743346
vt 0.4380165 0.7737643
vt 0.4214876 0.7737643
vt 0.4566116 0.7110266
vt 0.4731405 0.7110266
vt 0.4731405 0.7414448
vt 0.4566116 0.7414448
vt 0.1756198 0.7756654
vt 0.1921488 0.7756654
vt 0.1921488 0.8060837
vt 0.1756198 0.8060837
vt 0.1931818 0.8079848
vt 0.2097107 0.8079848
vt 0.2097107 0.838403
vt 0.1931818 0.838403
vt 0.2634298 0.9372624
vt 0.2799587 0.9372624
vt 0.2799587 0.9676806
vt 0.2634298 0.9676806
vt 0.1404959 0.904943
vt 0.1570248 0.904943
vt 0.1570248 0.9353612
vt 0.1404959 0.9353612
vt 0.3863636 0.8079848
vt 0.4028926 0.8079848
vt 0.4028926 0.838403
vt 0.3863636 0.838403
vt 0.3336777 0.7756654
vt 0.3502066 0.7756654
vt 0.3502066 0.8060837
vt 0.3336777 0.8060837
vt 0.3688017 0.8079848
vt 0.3853306 0.8079848
vt 0.3853306 0.838403
vt 0.3688017 0.838403
vt 0.2107438 0.7756654
vt 0.2272727 0.7756654
vt 0.2272727 0.8060837
vt 0.2107438 0.8060837
vt 0.2107438 0.8079848
vt 0.2272727 0.8079848
vt 0.2272727 0.838403
vt 0.2107438 0.838403
vt 0.2107438 0.6463878
vt 0.2272727 0.6463878
vt 0.2272727 0.6768061
vt 0.2107438 0.6768061
vt 0.1931818 0.6463878
vt 0.2097107 0.6463878
vt 0.2097107 0.6768061
vt 0.1931818 0.6768061
vt 0.1756198 0.6463878
vt 0.1921488 0.6463878
vt 0.1921488 0.6768061
vt 0.1756198 0.6768061
vt 0.2107438 0.6140684
vt 0.2272727 0.6140684
vt 0.2272727 0.6444867
vt 0.2107438 0.6444867
vt 0.1931818 0.6140684
vt 0.2097107 0.6140684
vt 0.2097107 0.6444867
vt 0.1931818 0.6444867
vt 0.1756198 0.6140684
vt 0.1921488 0.6140684
vt 0.1921488 0.6444867
vt 0.1756198 0.6444867
vt 0.2107438 0.5817491
vt 0.2272727 0.5817491
vt 0.2272727 0.6121673
vt 0.2107438 0.6121673
vt 0.1931818 0.5817491
vt 0.2097107 0.5817491
vt 0.2097107 0.6121673
vt 0.1931818 0.6121673
vt 0.1756198 0.5817491
vt 0.1921488 0.5817491
vt 0.1921488 0.6121673
vt 0.1756198 0.6121673
vt 0.4390496 0.9695817
vt 0.4555785 0.9695817
vt 0.4555785 1
vt 0.4390496 1
vt 0.8254132 0.4847909
vt 0.8419421 0.4847909
vt 0.8419421 0.5152091
vt 0.8254132 0.5152091

# Normal
vn 0 0 -1

# Mesh description
g huis_mesh_0002

# Faces
f 1/1/1 2/2/1 3/3/1 4/4/1
f 5/1/1 6/2/1 7/3/1 8/4/1
f 9/5/1 10/6/1 11/7/1 12/8/1
f 13/9/1 14/10/1 15/11/1 16/12/1
f 17/13/1 18/14/1 19/15/1 20/16/1
f 21/17/1 22/18/1 23/19/1 24/20/1
f 25/21/1 26/22/1 27/23/1 28/24/1
f 29/25/1 30/26/1 31/27/1 32/28/1
f 33/29/1 34/30/1 35/31/1 36/32/1
f 37/33/1 38/34/1 39/35/1 40/36/1
f 41/37/1 42/38/1 43/39/1 44/40/1
f 45/41/1 46/42/1 47/43/1 48/44/1
f 49/45/1 50/46/1 51/47/1 52/48/1
f 53/49/1 54/50/1 55/51/1 56/52/1
f 57/53/1 58/54/1 59/55/1 60/56/1
f 61/57/1 62/58/1 63/59/1 64/60/1
f 65/61/1 66/62/1 67/63/1 68/64/1
f 69/65/1 70/66/1 71/67/1 72/68/1
f 73/69/1 74/70/1 75/71/1 76/72/1
f 77/73/1 78/74/1 79/75/1 80/76/1
f 81/77/1 82/78/1 83/79/1 84/80/1
f 85/81/1 86/82/1 87/83/1 88/84/1
f 89/85/1 90/86/1 91/87/1 92/88/1

