# Tiled2Unity generated file. Do not modify by hand.
# Wavefront file for 'Town1_mesh_0004.obj'

# Vertices (Count = 360)
v -224 -128 0
v -240 -128 0
v -240 -112 0
v -224 -112 0
v -208 -128 0
v -224 -128 0
v -224 -112 0
v -208 -112 0
v -160 -128 0
v -176 -128 0
v -176 -112 0
v -160 -112 0
v -144 -128 0
v -160 -128 0
v -160 -112 0
v -144 -112 0
v -240 -144 0
v -256 -144 0
v -256 -128 0
v -240 -128 0
v -224 -144 0
v -240 -144 0
v -240 -128 0
v -224 -128 0
v -208 -144 0
v -224 -144 0
v -224 -128 0
v -208 -128 0
v -192 -144 0
v -208 -144 0
v -208 -128 0
v -192 -128 0
v -176 -144 0
v -192 -144 0
v -192 -128 0
v -176 -128 0
v -160 -144 0
v -176 -144 0
v -176 -128 0
v -160 -128 0
v -144 -144 0
v -160 -144 0
v -160 -128 0
v -144 -128 0
v -128 -144 0
v -144 -144 0
v -144 -128 0
v -128 -128 0
v -240 -160 0
v -256 -160 0
v -256 -144 0
v -240 -144 0
v -224 -160 0
v -240 -160 0
v -240 -144 0
v -224 -144 0
v -208 -160 0
v -224 -160 0
v -224 -144 0
v -208 -144 0
v -192 -160 0
v -208 -160 0
v -208 -144 0
v -192 -144 0
v -176 -160 0
v -192 -160 0
v -192 -144 0
v -176 -144 0
v -160 -160 0
v -176 -160 0
v -176 -144 0
v -160 -144 0
v -144 -160 0
v -160 -160 0
v -160 -144 0
v -144 -144 0
v -128 -160 0
v -144 -160 0
v -144 -144 0
v -128 -144 0
v -240 -176 0
v -256 -176 0
v -256 -160 0
v -240 -160 0
v -192 -176 0
v -208 -176 0
v -208 -160 0
v -192 -160 0
v -176 -176 0
v -192 -176 0
v -192 -160 0
v -176 -160 0
v -128 -176 0
v -144 -176 0
v -144 -160 0
v -128 -160 0
v -144 -208 0
v -160 -208 0
v -160 -192 0
v -144 -192 0
v -768 -224 0
v -784 -224 0
v -784 -208 0
v -768 -208 0
v -752 -224 0
v -768 -224 0
v -768 -208 0
v -752 -208 0
v -784 -240 0
v -800 -240 0
v -800 -224 0
v -784 -224 0
v -768 -240 0
v -784 -240 0
v -784 -224 0
v -768 -224 0
v -752 -240 0
v -768 -240 0
v -768 -224 0
v -752 -224 0
v -736 -240 0
v -752 -240 0
v -752 -224 0
v -736 -224 0
v -784 -256 0
v -800 -256 0
v -800 -240 0
v -784 -240 0
v -768 -256 0
v -784 -256 0
v -784 -240 0
v -768 -240 0
v -752 -256 0
v -768 -256 0
v -768 -240 0
v -752 -240 0
v -736 -256 0
v -752 -256 0
v -752 -240 0
v -736 -240 0
v -576 -256 0
v -592 -256 0
v -592 -240 0
v -576 -240 0
v -560 -256 0
v -576 -256 0
v -576 -240 0
v -560 -240 0
v -416 -256 0
v -432 -256 0
v -432 -240 0
v -416 -240 0
v -400 -256 0
v -416 -256 0
v -416 -240 0
v -400 -240 0
v -784 -272 0
v -800 -272 0
v -800 -256 0
v -784 -256 0
v -736 -272 0
v -752 -272 0
v -752 -256 0
v -736 -256 0
v -592 -272 0
v -608 -272 0
v -608 -256 0
v -592 -256 0
v -576 -272 0
v -592 -272 0
v -592 -256 0
v -576 -256 0
v -560 -272 0
v -576 -272 0
v -576 -256 0
v -560 -256 0
v -544 -272 0
v -560 -272 0
v -560 -256 0
v -544 -256 0
v -432 -272 0
v -448 -272 0
v -448 -256 0
v -432 -256 0
v -416 -272 0
v -432 -272 0
v -432 -256 0
v -416 -256 0
v -400 -272 0
v -416 -272 0
v -416 -256 0
v -400 -256 0
v -384 -272 0
v -400 -272 0
v -400 -256 0
v -384 -256 0
v -592 -288 0
v -608 -288 0
v -608 -272 0
v -592 -272 0
v -576 -288 0
v -592 -288 0
v -592 -272 0
v -576 -272 0
v -560 -288 0
v -576 -288 0
v -576 -272 0
v -560 -272 0
v -544 -288 0
v -560 -288 0
v -560 -272 0
v -544 -272 0
v -432 -288 0
v -448 -288 0
v -448 -272 0
v -432 -272 0
v -416 -288 0
v -432 -288 0
v -432 -272 0
v -416 -272 0
v -400 -288 0
v -416 -288 0
v -416 -272 0
v -400 -272 0
v -384 -288 0
v -400 -288 0
v -400 -272 0
v -384 -272 0
v -768 -304 0
v -784 -304 0
v -784 -288 0
v -768 -288 0
v -592 -304 0
v -608 -304 0
v -608 -288 0
v -592 -288 0
v -544 -304 0
v -560 -304 0
v -560 -288 0
v -544 -288 0
v -432 -304 0
v -448 -304 0
v -448 -288 0
v -432 -288 0
v -384 -304 0
v -400 -304 0
v -400 -288 0
v -384 -288 0
v -560 -336 0
v -576 -336 0
v -576 -320 0
v -560 -320 0
v -416 -336 0
v -432 -336 0
v -432 -320 0
v -416 -320 0
v -304 -432 0
v -320 -432 0
v -320 -416 0
v -304 -416 0
v -288 -432 0
v -304 -432 0
v -304 -416 0
v -288 -416 0
v -320 -448 0
v -336 -448 0
v -336 -432 0
v -320 -432 0
v -304 -448 0
v -320 -448 0
v -320 -432 0
v -304 -432 0
v -288 -448 0
v -304 -448 0
v -304 -432 0
v -288 -432 0
v -272 -448 0
v -288 -448 0
v -288 -432 0
v -272 -432 0
v -320 -464 0
v -336 -464 0
v -336 -448 0
v -320 -448 0
v -304 -464 0
v -320 -464 0
v -320 -448 0
v -304 -448 0
v -288 -464 0
v -304 -464 0
v -304 -448 0
v -288 -448 0
v -272 -464 0
v -288 -464 0
v -288 -448 0
v -272 -448 0
v -320 -480 0
v -336 -480 0
v -336 -464 0
v -320 -464 0
v -272 -480 0
v -288 -480 0
v -288 -464 0
v -272 -464 0
v -704 -512 0
v -720 -512 0
v -720 -496 0
v -704 -496 0
v -688 -512 0
v -704 -512 0
v -704 -496 0
v -688 -496 0
v -288 -512 0
v -304 -512 0
v -304 -496 0
v -288 -496 0
v -720 -528 0
v -736 -528 0
v -736 -512 0
v -720 -512 0
v -704 -528 0
v -720 -528 0
v -720 -512 0
v -704 -512 0
v -688 -528 0
v -704 -528 0
v -704 -512 0
v -688 -512 0
v -672 -528 0
v -688 -528 0
v -688 -512 0
v -672 -512 0
v -720 -544 0
v -736 -544 0
v -736 -528 0
v -720 -528 0
v -704 -544 0
v -720 -544 0
v -720 -528 0
v -704 -528 0
v -688 -544 0
v -704 -544 0
v -704 -528 0
v -688 -528 0
v -672 -544 0
v -688 -544 0
v -688 -528 0
v -672 -528 0
v -720 -560 0
v -736 -560 0
v -736 -544 0
v -720 -544 0
v -672 -560 0
v -688 -560 0
v -688 -544 0
v -672 -544 0
v -704 -592 0
v -720 -592 0
v -720 -576 0
v -704 -576 0

# Texture cooridinates (Count = 52)
vt 0.6146694 0.2908745
vt 0.6311983 0.2908745
vt 0.6311983 0.3212928
vt 0.6146694 0.3212928
vt 0.5971074 0.2908745
vt 0.6136364 0.2908745
vt 0.6136364 0.3212928
vt 0.5971074 0.3212928
vt 0.6146694 0.2585551
vt 0.6311983 0.2585551
vt 0.6311983 0.2889734
vt 0.6146694 0.2889734
vt 0.5971074 0.2585551
vt 0.6136364 0.2585551
vt 0.6136364 0.2889734
vt 0.5971074 0.2889734
vt 0.6146694 0.2262357
vt 0.6311983 0.2262357
vt 0.6311983 0.256654
vt 0.6146694 0.256654
vt 0.5971074 0.2262357
vt 0.6136364 0.2262357
vt 0.6136364 0.256654
vt 0.5971074 0.256654
vt 0.6322314 0.9372624
vt 0.6487603 0.9372624
vt 0.6487603 0.9676806
vt 0.6322314 0.9676806
vt 0.3688017 0.2908745
vt 0.3853306 0.2908745
vt 0.3853306 0.3212928
vt 0.3688017 0.3212928
vt 0.3512397 0.2908745
vt 0.3677686 0.2908745
vt 0.3677686 0.3212928
vt 0.3512397 0.3212928
vt 0.3688017 0.2585551
vt 0.3853306 0.2585551
vt 0.3853306 0.2889734
vt 0.3688017 0.2889734
vt 0.3512397 0.2585551
vt 0.3677686 0.2585551
vt 0.3677686 0.2889734
vt 0.3512397 0.2889734
vt 0.3688017 0.2262357
vt 0.3853306 0.2262357
vt 0.3853306 0.256654
vt 0.3688017 0.256654
vt 0.3512397 0.2262357
vt 0.3677686 0.2262357
vt 0.3677686 0.256654
vt 0.3512397 0.256654

# Normal
vn 0 0 -1

# Mesh description
g Town1_mesh_0004

# Faces
f 1/1/1 2/2/1 3/3/1 4/4/1
f 5/5/1 6/6/1 7/7/1 8/8/1
f 9/1/1 10/2/1 11/3/1 12/4/1
f 13/5/1 14/6/1 15/7/1 16/8/1
f 17/1/1 18/2/1 19/3/1 20/4/1
f 21/9/1 22/10/1 23/11/1 24/12/1
f 25/13/1 26/14/1 27/15/1 28/16/1
f 29/5/1 30/6/1 31/7/1 32/8/1
f 33/1/1 34/2/1 35/3/1 36/4/1
f 37/9/1 38/10/1 39/11/1 40/12/1
f 41/13/1 42/14/1 43/15/1 44/16/1
f 45/5/1 46/6/1 47/7/1 48/8/1
f 49/9/1 50/10/1 51/11/1 52/12/1
f 53/17/1 54/18/1 55/19/1 56/20/1
f 57/21/1 58/22/1 59/23/1 60/24/1
f 61/13/1 62/14/1 63/15/1 64/16/1
f 65/9/1 66/10/1 67/11/1 68/12/1
f 69/17/1 70/18/1 71/19/1 72/20/1
f 73/21/1 74/22/1 75/23/1 76/24/1
f 77/13/1 78/14/1 79/15/1 80/16/1
f 81/17/1 82/18/1 83/19/1 84/20/1
f 85/21/1 86/22/1 87/23/1 88/24/1
f 89/17/1 90/18/1 91/19/1 92/20/1
f 93/21/1 94/22/1 95/23/1 96/24/1
f 97/25/1 98/26/1 99/27/1 100/28/1
f 101/1/1 102/2/1 103/3/1 104/4/1
f 105/5/1 106/6/1 107/7/1 108/8/1
f 109/1/1 110/2/1 111/3/1 112/4/1
f 113/9/1 114/10/1 115/11/1 116/12/1
f 117/13/1 118/14/1 119/15/1 120/16/1
f 121/5/1 122/6/1 123/7/1 124/8/1
f 125/9/1 126/10/1 127/11/1 128/12/1
f 129/17/1 130/18/1 131/19/1 132/20/1
f 133/21/1 134/22/1 135/23/1 136/24/1
f 137/13/1 138/14/1 139/15/1 140/16/1
f 141/1/1 142/2/1 143/3/1 144/4/1
f 145/5/1 146/6/1 147/7/1 148/8/1
f 149/1/1 150/2/1 151/3/1 152/4/1
f 153/5/1 154/6/1 155/7/1 156/8/1
f 157/17/1 158/18/1 159/19/1 160/20/1
f 161/21/1 162/22/1 163/23/1 164/24/1
f 165/1/1 166/2/1 167/3/1 168/4/1
f 169/9/1 170/10/1 171/11/1 172/12/1
f 173/13/1 174/14/1 175/15/1 176/16/1
f 177/5/1 178/6/1 179/7/1 180/8/1
f 181/1/1 182/2/1 183/3/1 184/4/1
f 185/9/1 186/10/1 187/11/1 188/12/1
f 189/13/1 190/14/1 191/15/1 192/16/1
f 193/5/1 194/6/1 195/7/1 196/8/1
f 197/9/1 198/10/1 199/11/1 200/12/1
f 201/17/1 202/18/1 203/19/1 204/20/1
f 205/21/1 206/22/1 207/23/1 208/24/1
f 209/13/1 210/14/1 211/15/1 212/16/1
f 213/9/1 214/10/1 215/11/1 216/12/1
f 217/17/1 218/18/1 219/19/1 220/20/1
f 221/21/1 222/22/1 223/23/1 224/24/1
f 225/13/1 226/14/1 227/15/1 228/16/1
f 229/25/1 230/26/1 231/27/1 232/28/1
f 233/17/1 234/18/1 235/19/1 236/20/1
f 237/21/1 238/22/1 239/23/1 240/24/1
f 241/17/1 242/18/1 243/19/1 244/20/1
f 245/21/1 246/22/1 247/23/1 248/24/1
f 249/25/1 250/26/1 251/27/1 252/28/1
f 253/25/1 254/26/1 255/27/1 256/28/1
f 257/1/1 258/2/1 259/3/1 260/4/1
f 261/5/1 262/6/1 263/7/1 264/8/1
f 265/1/1 266/2/1 267/3/1 268/4/1
f 269/9/1 270/10/1 271/11/1 272/12/1
f 273/13/1 274/14/1 275/15/1 276/16/1
f 277/5/1 278/6/1 279/7/1 280/8/1
f 281/9/1 282/10/1 283/11/1 284/12/1
f 285/17/1 286/18/1 287/19/1 288/20/1
f 289/21/1 290/22/1 291/23/1 292/24/1
f 293/13/1 294/14/1 295/15/1 296/16/1
f 297/17/1 298/18/1 299/19/1 300/20/1
f 301/21/1 302/22/1 303/23/1 304/24/1
f 305/29/1 306/30/1 307/31/1 308/32/1
f 309/33/1 310/34/1 311/35/1 312/36/1
f 313/25/1 314/26/1 315/27/1 316/28/1
f 317/29/1 318/30/1 319/31/1 320/32/1
f 321/37/1 322/38/1 323/39/1 324/40/1
f 325/41/1 326/42/1 327/43/1 328/44/1
f 329/33/1 330/34/1 331/35/1 332/36/1
f 333/37/1 334/38/1 335/39/1 336/40/1
f 337/45/1 338/46/1 339/47/1 340/48/1
f 341/49/1 342/50/1 343/51/1 344/52/1
f 345/41/1 346/42/1 347/43/1 348/44/1
f 349/45/1 350/46/1 351/47/1 352/48/1
f 353/49/1 354/50/1 355/51/1 356/52/1
f 357/25/1 358/26/1 359/27/1 360/28/1

